<svg xmlns="http://www.w3.org/2000/svg" width="805" height="301"><rect width="805" height="301" x="0" y="0" fill="#FFFFFF" id="background"/><g id="viz"><g transform="translate(0,0)"><g transform="translate(10,20)"><g><path fill="#9467bd" d="M0,224.64358807936125L2.842340733686487,224.59635944400063C5.684681467372974,224.54913080864,11.369362934745949,224.45467353791875,17.054044402118922,224.5538935129325C22.738725869491898,224.65311348794626,28.42340733686487,224.946010708695,34.108088804237845,224.3014880599063C39.79277027161081,223.6569654111175,45.47745173898378,222.07502289279125,51.16992044124357,219.92531978555064C56.86238914350336,217.77561667831,62.56264508064995,215.058152982155,68.25511378290975,211.87510065251502C73.94758248516952,208.69204832287502,79.63226395254252,205.04340735974998,85.31694541991548,205.0799146894375C91.00162688728847,205.116422019125,96.68630835466143,208.838077641625,102.37098982203442,211.84410264756252C108.05567128940739,214.85012765349998,113.74035275678035,217.140522042875,119.43282145904014,218.20052378884375C125.12529016129992,219.2605255348125,130.8255460984465,219.09013463737497,136.5180148007063,219.03062376799085C142.21048350296607,218.97111289860663,147.89516497033904,219.02248205727582,153.57984643771204,217.3641523468348C159.26452790508503,215.70582263639378,164.949209372458,212.3377940568425,170.63389083983097,199.66004466980584C176.31857230720394,186.98229528276917,182.00325377457693,164.9948250882471,187.69572247683672,154.54613534921106C193.38819117909648,144.09744561017501,199.0884471162431,145.187536326625,204.78091581850288,144.89920830621875C210.47338452076266,144.6108802858125,216.15806598813563,142.94413352855,221.8427474555086,139.0354480576425C227.52742892288157,135.126762586735,233.21211039025457,128.9761384021825,238.8967918576275,123.93039475352145C244.5814733250005,118.88465110486042,250.26615479237344,114.94378799209083,255.95829902651295,112.88317563394416C261.6504432606525,110.82256327579749,267.3500502615585,110.64220167227371,273.042194495698,108.40581371504747C278.73433872983753,106.16942575782122,284.4190201972105,101.87701144689248,290.10370166458347,114.85703009315603C295.78838313195644,127.83704873941957,301.4730645993294,158.08950034287543,307.1577460667024,172.9290386307977C312.84242753407534,187.76857691872002,318.5271090014483,187.19520189110878,324.2195777037081,187.78183884827317C329.91204640596794,188.36847580543755,335.61230234311455,190.11512474737754,341.30509551349456,191.0864651705275C346.99788868387463,192.0578055936775,352.6832190874882,192.25383749803748,358.36822502298145,194.8327322963431C364.0532309584748,197.4116270946487,369.7379124258477,202.3733847869,375.42259389322066,206.3327684092875C381.10727536059363,210.292152031675,386.79195682796654,213.24916158419873,392.4844255302264,215.94431906936185C398.1768942324862,218.63947655452498,403.8771501696328,221.07278197232748,409.56961887189254,222.28635275474934C415.2620875741524,223.4999235371712,420.94676904152533,223.4937596842125,426.6314505088983,225.1093945521425C432.31613197627127,226.7250294200725,438.0008134436442,229.9624630088913,443.6854949110172,233.28041225757147C449.37017637839017,236.59836150625165,455.05485784576314,239.99682641479322,460.74732654802284,242.3151229603014C466.4397952502827,244.6334195058096,472.14005118742926,245.87154768828438,477.8325198896891,247.98166647537835C483.5249885919489,250.09178526247237,489.2096700593218,253.07389465418555,494.89435152669483,254.5079207481126C500.5790329940678,255.94194684203958,506.26371446144077,255.82788963818044,511.9483959288137,256.41015942603434C517.6330773961868,256.9924292138883,523.3177588635598,258.27102599345534,529.0102275658195,259.12097222166284C534.7026962680793,259.97091844987034,540.4029522052259,260.3922141267183,546.0954209074856,260.6254392014704C551.7878896097454,260.8586642762225,557.4725710771185,260.9038187488788,563.1572525444914,260.92819453927547C568.8419340118644,260.95257032967214,574.5266154792374,260.95616743780926,580.21097247849,260.96273490752804C585.8953294777427,260.96930237724683,591.5793620088751,260.97884020854735,597.2715062430146,260.98554611755634C602.9636504771541,260.99225202656527,608.6639064143008,260.99612601328266,614.3566995846808,260.9980630066413C620.0494927550609,261,625.7348231586744,261,631.4198290941677,261C637.104835029661,261,642.789516497034,261,648.4741979644069,261C654.1588794317798,261,659.8435608991527,261,665.5360296014126,261C671.2284983036724,261,676.928754240819,261,682.6212229430788,261C688.3136916453386,261,693.9983731127114,261,699.6830545800844,261C705.3677360474575,261,711.0524175148306,261,716.7370989822035,261C722.4217804495765,261,728.1064619169493,261,733.7989306192093,261C739.491399321469,261,745.1916552586157,261,750.8841239608754,261C756.5765926631351,261,762.261274130508,261,767.945955597881,261C773.6306370652541,261,779.315318532627,261,782.1576592663135,261L785,261L785,261L782.1576592663135,261C779.315318532627,261,773.6306370652541,261,767.945955597881,261C762.261274130508,261,756.5765926631351,261,750.8841239608754,261C745.1916552586157,261,739.491399321469,261,733.7989306192093,261C728.1064619169493,261,722.4217804495765,261,716.7370989822035,261C711.0524175148306,261,705.3677360474575,261,699.6830545800844,261C693.9983731127114,261,688.3136916453386,261,682.6212229430788,261C676.928754240819,261,671.2284983036724,261,665.5360296014126,261C659.8435608991527,261,654.1588794317798,261,648.4741979644069,261C642.789516497034,261,637.104835029661,261,631.4198290941677,261C625.7348231586744,261,620.0494927550609,261,614.3566995846808,261C608.6639064143008,261,602.9636504771541,261,597.2715062430146,261C591.5793620088751,261,585.8953294777427,261,580.21097247849,261C574.5266154792374,261,568.8419340118644,261,563.1572525444914,261C557.4725710771185,261,551.7878896097454,261,546.0954209074856,260.81640739179664C540.4029522052259,260.6328147835933,534.7026962680793,260.2656295671866,529.0102275658195,259.6568363981672C523.3177588635598,259.0480432291478,517.6330773961868,258.1976421075158,511.9483959288137,258.0976287750669C506.26371446144077,257.9976154426179,500.5790329940678,258.64798989935207,494.89435152669483,257.89255727245006C489.2096700593218,257.13712464554806,483.5249885919489,254.97588493500984,477.8325198896891,254.02227383055194C472.14005118742926,253.068662726094,466.4397952502827,253.32268022771635,460.74732654802295,253.1397773986913C455.05485784576314,252.9568745696662,449.37017637839017,252.33705140999373,443.6854949110172,251.62707090087747C438.0008134436442,250.91709039176126,432.31613197627127,250.11695253320124,426.6314505088983,250.19669797333188C420.94676904152533,250.2764434134625,415.2620875741524,251.23607215228375,409.56961887189254,251.90368773501189C403.8771501696328,252.57130331774,398.1768942324862,252.94690574437496,392.4844255302264,253.19281383028684C386.79195682796654,253.43872191619872,381.10727536059363,253.5549356613875,375.42259389322066,253.5753656872375C369.7379124258477,253.59579571308748,364.0532309584748,253.52044201959873,358.36822502298145,253.52640126782435C352.6832190874882,253.53236051604998,346.99788868387463,253.61963270598997,341.30509551349456,253.76170453593375C335.61230234311455,253.90377636587752,329.91204640596794,254.10064783582501,324.2195777037081,254.26360733360437C318.5271090014483,254.42656683138375,312.84242753407534,254.555614356995,307.1577460667024,241.66204356747895C301.4730645993294,228.7684727779629,295.78838313195644,202.85228367331956,290.10370166458347,192.0453449105935C284.4190201972105,181.2384061478675,278.73433872983753,185.5407177270587,273.042194495698,188.03565579981C267.3500502615585,190.5305938725612,261.6504432606525,191.21815843887248,255.95829902651295,192.1796210188454C250.26615479237344,193.14108359881834,244.5814733250005,194.3764441924529,238.8967918576275,196.5060349794077C233.21211039025457,198.6356257663625,227.52742892288157,201.6594467466375,221.84274745550863,203.82218416678128C216.15806598813563,205.984921586925,210.47338452076266,207.2865754469375,204.78091581850288,207.63909070434374C199.0884471162431,207.99160596175,193.38819117909648,207.39498261655,187.69572247683672,215.8835899110235C182.00325377457693,224.3721972054971,176.31857230720394,241.94603513964418,170.63389083983097,250.81297526108582C164.949209372458,259.6799153825275,159.26452790508503,259.83995769126375,153.57984643771204,260.0866455122985C147.89516497033904,260.3333333333333,142.21048350296607,260.6666666666667,136.5180148007063,260.8333333333333C130.8255460984465,261,125.12529016129992,261,119.43282145904014,261C113.74035275678035,261,108.05567128940739,261,102.3709898220344,261C96.68630835466143,261,91.00162688728847,261,85.31694541991548,261C79.63226395254252,261,73.94758248516952,261,68.25511378290975,261C62.56264508064995,261,56.86238914350336,261,51.16992044124357,261C45.47745173898378,261,39.79277027161081,261,34.108088804237845,261C28.42340733686487,261,22.738725869491898,261,17.054044402118922,261C11.369362934745949,261,5.684681467372974,261,2.842340733686487,261L0,261Z"><title>Tape</title></path><path fill="#1f77b4" d="M0,261L2.842340733686487,261C5.684681467372974,261,11.369362934745949,261,17.054044402118922,261C22.738725869491898,261,28.42340733686487,261,34.108088804237845,261C39.79277027161081,261,45.47745173898378,261,51.16992044124357,261C56.86238914350336,261,62.56264508064995,261,68.25511378290975,261C73.94758248516952,261,79.63226395254252,261,85.31694541991548,261C91.00162688728847,261,96.68630835466143,261,102.37098982203442,261C108.05567128940739,261,113.74035275678035,261,119.43282145904014,261C125.12529016129992,261,130.8255460984465,261,136.5180148007063,261C142.21048350296607,261,147.89516497033904,261,153.57984643771204,260.9199788456319C159.26452790508503,260.83995769126375,164.949209372458,260.6799153825275,170.63389083983097,260.219212979415C176.31857230720394,259.7585105763025,182.00325377457693,258.9971480788137,187.69572247683672,257.3997914197506C193.38819117909648,255.80243476068748,199.0884471162431,253.36908394005,204.78091581850288,249.89741254285002C210.47338452076266,246.42574114565,216.15806598813563,241.91574917188748,221.8427474555086,232.86176111633335C227.52742892288157,223.80777306077917,233.21211039025457,210.2097889234333,238.8967918576275,202.7931165579431C244.5814733250005,195.3764441924529,250.26615479237344,194.14108359881834,255.95829902651295,193.1796210188454C261.6504432606525,192.21815843887248,267.3500502615585,191.5305938725612,273.042194495698,189.03565579980997C278.73433872983753,186.5407177270587,284.4190201972105,182.2384061478675,290.10370166458347,166.77779571484206C295.78838313195644,151.31718528181662,301.4730645993294,124.69827599495704,307.1577460667024,108.23808424018978C312.84242753407534,91.77789248542247,318.5271090014483,85.47641826274749,324.2195777037081,79.91271835668375C329.91204640596794,74.34901845062002,335.61230234311455,69.52309286116751,341.30509551349456,61.59414149950564C346.99788868387463,53.66519013784375,352.6832190874882,42.633213003972486,358.36822502298145,37.38998549415561C364.0532309584748,32.14675798433873,369.7379124258477,32.69228009857624,375.42259389322066,33.40889315468187C381.10727536059363,34.1255062107875,386.79195682796654,35.01321020876125,392.4844255302264,37.14480557886813C398.1768942324862,39.276400948975,403.8771501696328,42.651887691215,409.56961887189254,40.69004174985563C415.2620875741524,38.72819580849626,420.94676904152533,31.429017183537507,426.6314505088983,26.19215980619876C432.31613197627127,20.95530242886002,438.0008134436442,17.780766299141277,443.6854949110172,18.215038657290208C449.37017637839017,18.64931101543914,455.05485784576314,22.692391861455743,460.74732654802284,27.291385720695178C466.4397952502827,31.89037957993462,472.14005118742926,37.04528645239689,477.8325198896891,43.094165252747956C483.5249885919489,49.143044053099025,489.2096700593218,56.08589478133888,494.89435152669483,61.86554443527985C500.5790329940678,67.64519408922082,506.26371446144077,72.2616426688629,511.9483959288137,74.14055596448993C517.6330773961868,76.01946926011698,523.3177588635598,75.16084727172897,529.0102275658195,75.85488212950578C534.7026962680793,76.5489169872826,540.4029522052259,78.79560869122422,546.0954209074856,82.0493188297761C551.7878896097454,85.30302896832798,557.4725710771185,89.56375754149012,563.1572525444914,94.91538538919555C568.8419340118644,100.267013236901,574.5266154792374,106.70954035914974,580.21097247849,114.84923343377348C585.8953294777427,122.98892650839723,591.5793620088751,132.82578553539597,597.2715062430146,139.88626966942246C602.9636504771541,146.94675380344893,608.6639064143008,151.23086304450317,614.3566995846808,155.38246441269058C620.0494927550609,159.534065780878,625.7348231586744,163.5531592761986,631.4198290941677,165.7678685437162C637.104835029661,167.98257781123377,642.789516497034,168.39290285094822,648.4741979644069,175.3921691903416C654.1588794317798,182.39143552973496,659.8435608991527,195.97964316880714,665.5360296014126,202.66095295020787C671.2284983036724,209.34226273160866,676.928754240819,209.11667465533787,682.6212229430788,212.8258013665935C688.3136916453386,216.53492807784923,693.9983731127114,224.1787695766313,699.6830545800844,228.48556094929828C705.3677360474575,232.79235232196527,711.0524175148306,233.76209356851712,716.7370989822035,234.87417385205492C722.4217804495765,235.98625413559273,728.1064619169493,237.2406734561165,733.7989306192093,238.01531149646885C739.491399321469,238.78994953682124,745.1916552586157,239.08480629700225,750.8841239608754,239.84080383491155C756.5765926631351,240.5968013728209,762.261274130508,241.8139396884585,767.945955597881,242.49913339303637C773.6306370652541,243.18432709761427,779.315318532627,243.33757619113237,782.1576592663135,243.41420073789143L785,243.4908252846505L785,250.18030706128673L782.1576592663135,250.27940391316463C779.315318532627,250.3785007650425,773.6306370652541,250.57669446879822,767.945955597881,250.77976893790006C762.261274130508,250.98284340700187,756.5765926631351,251.19079864144976,750.8841239608754,251.33015652439886C745.1916552586157,251.46951440734802,739.491399321469,251.54027493879835,733.7989306192093,251.59185833008289C728.1064619169493,251.64344172136737,722.4217804495765,251.67584797248597,716.7370989822035,251.86311433121637C711.0524175148306,252.05038068994676,705.3677360474575,252.39250715628887,699.6830545800844,249.52165551851172C693.9983731127114,246.65080388073454,688.3136916453386,240.56697413883808,682.6212229430788,238.39832315532053C676.928754240819,236.22967217180303,671.2284983036724,237.97619994666437,665.5360296014126,233.42734404310735C659.8435608991527,228.87848813955029,654.1588794317798,218.03424855757484,648.4741979644069,213.2215643467539C642.789516497034,208.4088801359329,637.104835029661,209.62775129626638,631.4198290941677,210.3552976510666C625.7348231586744,211.0828440058668,620.0494927550609,211.31906555513365,614.3566995846808,211.74468693134C608.6639064143008,212.1703083075464,602.9636504771541,212.78532951069232,597.2715062430146,213.0782592619255C591.5793620088751,213.37118901315873,585.8953294777427,213.34202731247925,580.21097247849,214.98601102072402C574.5266154792374,216.62999472896877,568.8419340118644,219.94712384613777,563.1572525444914,222.91235800598793C557.4725710771185,225.87759216583814,551.7878896097454,228.4909313683695,546.0954209074856,231.82010785807313C540.4029522052259,235.14928434777676,534.7026962680793,239.19429812465262,529.0102275658195,241.93531923056267C523.3177588635598,244.67634033647275,517.6330773961868,246.113368771417,511.9483959288137,247.15140915569432C506.26371446144077,248.18944953997166,500.5790329940678,248.82850187358204,494.89435152669483,248.5883816509817C489.2096700593218,248.34826142838133,483.5249885919489,247.22896864957025,477.8325198896891,246.05025816892734C472.14005118742926,244.87154768828438,466.4397952502827,243.6334195058096,460.74732654802295,241.3151229603014C455.05485784576314,238.99682641479322,449.37017637839017,235.59836150625165,443.6854949110172,232.28041225757147C438.0008134436442,228.9624630088913,432.31613197627127,225.7250294200725,426.6314505088983,224.1093945521425C420.94676904152533,222.4937596842125,415.2620875741524,222.4999235371712,409.56961887189254,221.28635275474937C403.8771501696328,220.07278197232748,398.1768942324862,217.63947655452498,392.4844255302264,214.94431906936185C386.79195682796654,212.24916158419873,381.10727536059363,209.292152031675,375.42259389322066,205.33276840928752C369.7379124258477,201.3733847869,364.0532309584748,196.4116270946487,358.36822502298145,193.83273229634312C352.6832190874882,191.25383749803748,346.99788868387463,191.0578055936775,341.30509551349456,190.0864651705275C335.61230234311455,189.11512474737754,329.91204640596794,187.36847580543755,324.2195777037081,186.78183884827317C318.5271090014483,186.19520189110878,312.84242753407534,186.76857691872002,307.1577460667024,197.74605193668916C301.4730645993294,208.72352695465835,295.78838313195644,230.1051019629854,290.10370166458347,240.35864759224273C284.4190201972105,250.6121932215,278.73433872983753,249.7377094716875,273.042194495698,248.19869256826874C267.3500502615585,246.65967566484997,261.6504432606525,244.456125607825,255.95829902651295,242.2479047377354C250.26615479237344,240.03968386764583,244.5814733250005,237.82679218449167,238.8967918576275,240.951362926025C233.21211039025457,244.07593366755836,227.52742892288157,252.53796683377917,221.84274745550863,256.76898341688957C216.15806598813563,261,210.47338452076266,261,204.78091581850288,261C199.0884471162431,261,193.38819117909648,261,187.69572247683672,261C182.00325377457693,261,176.31857230720394,261,170.63389083983097,261C164.949209372458,261,159.26452790508503,261,153.57984643771204,261C147.89516497033904,261,142.21048350296607,261,136.5180148007063,261C130.8255460984465,261,125.12529016129992,261,119.43282145904014,261C113.74035275678035,261,108.05567128940739,261,102.3709898220344,261C96.68630835466143,261,91.00162688728847,261,85.31694541991548,261C79.63226395254252,261,73.94758248516952,261,68.25511378290975,261C62.56264508064995,261,56.86238914350336,261,51.16992044124357,261C45.47745173898378,261,39.79277027161081,261,34.108088804237845,261C28.42340733686487,261,22.738725869491898,261,17.054044402118922,261C11.369362934745949,261,5.684681467372974,261,2.842340733686487,261L0,261Z"><title>Disc</title></path><path fill="#ff7f0e" d="M0,261L2.842340733686487,261C5.684681467372974,261,11.369362934745949,261,17.054044402118922,261C22.738725869491898,261,28.42340733686487,261,34.108088804237845,261C39.79277027161081,261,45.47745173898378,261,51.16992044124357,261C56.86238914350336,261,62.56264508064995,261,68.25511378290975,261C73.94758248516952,261,79.63226395254252,261,85.31694541991548,261C91.00162688728847,261,96.68630835466143,261,102.37098982203442,261C108.05567128940739,261,113.74035275678035,261,119.43282145904014,261C125.12529016129992,261,130.8255460984465,261,136.5180148007063,260.8333333333333C142.21048350296607,260.6666666666667,147.89516497033904,260.3333333333333,153.57984643771204,260.3333333333333C159.26452790508503,260.3333333333333,164.949209372458,260.6666666666667,170.63389083983097,260.8333333333333C176.31857230720394,261,182.00325377457693,261,187.69572247683672,261C193.38819117909648,261,199.0884471162431,261,204.78091581850288,261C210.47338452076266,261,216.15806598813563,261,221.8427474555086,261C227.52742892288157,261,233.21211039025457,261,238.8967918576275,261C244.5814733250005,261,250.26615479237344,261,255.95829902651295,261C261.6504432606525,261,267.3500502615585,261,273.042194495698,261C278.73433872983753,261,284.4190201972105,261,290.10370166458347,261C295.78838313195644,261,301.4730645993294,261,307.1577460667024,261C312.84242753407534,261,318.5271090014483,261,324.2195777037081,261C329.91204640596794,261,335.61230234311455,261,341.30509551349456,261C346.99788868387463,261,352.6832190874882,261,358.36822502298145,261C364.0532309584748,261,369.7379124258477,261,375.42259389322066,261C381.10727536059363,261,386.79195682796654,261,392.4844255302264,261C398.1768942324862,261,403.8771501696328,261,409.56961887189254,261C415.2620875741524,261,420.94676904152533,261,426.6314505088983,261C432.31613197627127,261,438.0008134436442,261,443.6854949110172,261C449.37017637839017,261,455.05485784576314,261,460.74732654802284,261C466.4397952502827,261,472.14005118742926,261,477.8325198896891,261C483.5249885919489,261,489.2096700593218,261,494.89435152669483,261C500.5790329940678,261,506.26371446144077,261,511.9483959288137,259.87864623308207C517.6330773961868,258.7572924661641,523.3177588635598,256.5145849323282,529.0102275658195,251.69863002747834C534.7026962680793,246.8826751226285,540.4029522052259,239.4934728467647,546.0954209074856,234.4922021075671C551.7878896097454,229.4909313683695,557.4725710771185,226.87759216583814,563.1572525444914,223.91235800598793C568.8419340118644,220.94712384613777,574.5266154792374,217.62999472896877,580.21097247849,215.98601102072402C585.8953294777427,214.34202731247925,591.5793620088751,214.37118901315873,597.2715062430146,214.07825926192552C602.9636504771541,213.78532951069232,608.6639064143008,213.1703083075464,614.3566995846808,212.74468693134C620.0494927550609,212.31906555513365,625.7348231586744,212.0828440058668,631.4198290941677,211.3552976510666C637.104835029661,210.62775129626638,642.789516497034,209.4088801359329,648.4741979644069,202.7749129844757C654.1588794317798,196.14094583301855,659.8435608991527,184.0918826904377,665.5360296014126,178.2332478128088C671.2284983036724,172.3746129351799,676.928754240819,172.7064063225029,682.6212229430788,173.761978738765C688.3136916453386,174.8175511550271,693.9983731127114,176.5969026002284,699.6830545800844,182.19505496089883C705.3677360474575,187.79320732156933,711.0524175148306,197.210160597709,716.7370989822035,203.49826409045522C722.4217804495765,209.78636758320135,728.1064619169493,212.94562129255402,733.7989306192093,215.58695480407448C739.491399321469,218.228288315595,745.1916552586157,220.35170162928338,750.8841239608754,222.7589319969821C756.5765926631351,225.16616236468087,762.261274130508,227.85720978638997,767.945955597881,229.64503261588763C773.6306370652541,231.43285544538526,779.315318532627,232.31745368267138,782.1576592663135,232.75975280131445L785,233.2020519199575L785,242.4908252846505L782.1576592663135,242.41420073789143C779.315318532627,242.33757619113237,773.6306370652541,242.18432709761427,767.945955597881,241.49913339303637C762.261274130508,240.8139396884585,756.5765926631351,239.5968013728209,750.8841239608754,238.84080383491153C745.1916552586157,238.08480629700225,739.491399321469,237.78994953682124,733.7989306192093,237.01531149646885C728.1064619169493,236.2406734561165,722.4217804495765,234.98625413559273,716.7370989822035,230.1304966340633C711.0524175148306,225.2747391325338,705.3677360474575,216.8176434499986,699.6830545800844,212.5108520773316C693.9983731127114,208.2040607046646,688.3136916453386,208.04757364186585,682.6212229430788,208.0821241486019C676.928754240819,208.11667465533787,671.2284983036724,208.34226273160866,665.5360296014126,214.3698423792082C659.8435608991527,220.3974220268077,654.1588794317798,232.22699324573605,648.4741979644069,238.49704521417632C642.789516497034,244.7670971826166,637.104835029661,245.47762990056887,631.4198290941677,245.97274910014096C625.7348231586744,246.46786829971302,620.0494927550609,246.7475739809049,614.3566995846808,247.2302391785544C608.6639064143008,247.71290437620394,602.9636504771541,248.3985290903111,597.2715062430146,248.29386565324805C591.5793620088751,248.189202216185,585.8953294777427,247.29425062795175,580.21097247849,246.95013131940024C574.5266154792374,246.60601201084876,568.8419340118644,246.81272498197902,563.1572525444914,246.62325953182668C557.4725710771185,246.43379408167436,551.7878896097454,245.8481502102395,546.0954209074856,247.50702204134276C540.4029522052259,249.16589387244593,534.7026962680793,253.06928140608727,529.0102275658195,255.69219701628649C523.3177588635598,258.3151126264857,517.6330773961868,259.6575563132429,511.9483959288137,260.3287781566214C506.26371446144077,261,500.5790329940678,261,494.89435152669483,261C489.2096700593218,261,483.5249885919489,261,477.8325198896891,261C472.14005118742926,261,466.4397952502827,261,460.74732654802295,261C455.05485784576314,261,449.37017637839017,261,443.6854949110172,261C438.0008134436442,261,432.31613197627127,261,426.6314505088983,261C420.94676904152533,261,415.2620875741524,261,409.56961887189254,261C403.8771501696328,261,398.1768942324862,261,392.4844255302264,261C386.79195682796654,261,381.10727536059363,261,375.42259389322066,261C369.7379124258477,261,364.0532309584748,261,358.36822502298145,261C352.6832190874882,261,346.99788868387463,261,341.30509551349456,261C335.61230234311455,261,329.91204640596794,261,324.2195777037081,261C318.5271090014483,261,312.84242753407534,261,307.1577460667024,261C301.4730645993294,261,295.78838313195644,261,290.10370166458347,261C284.4190201972105,261,278.73433872983753,261,273.042194495698,261C267.3500502615585,261,261.6504432606525,261,255.95829902651295,261C250.26615479237344,261,244.5814733250005,261,238.8967918576275,261C233.21211039025457,261,227.52742892288157,261,221.84274745550863,261C216.15806598813563,261,210.47338452076266,261,204.78091581850288,261C199.0884471162431,261,193.38819117909648,261,187.69572247683672,261C182.00325377457693,261,176.31857230720394,261,170.63389083983097,260.8333333333333C164.949209372458,260.6666666666667,159.26452790508503,260.3333333333333,153.57984643771204,260.3333333333333C147.89516497033904,260.3333333333333,142.21048350296607,260.6666666666667,136.5180148007063,260.8333333333333C130.8255460984465,261,125.12529016129992,261,119.43282145904014,261C113.74035275678035,261,108.05567128940739,261,102.3709898220344,261C96.68630835466143,261,91.00162688728847,261,85.31694541991548,261C79.63226395254252,261,73.94758248516952,261,68.25511378290975,261C62.56264508064995,261,56.86238914350336,261,51.16992044124357,261C45.47745173898378,261,39.79277027161081,261,34.108088804237845,261C28.42340733686487,261,22.738725869491898,261,17.054044402118922,261C11.369362934745949,261,5.684681467372974,261,2.842340733686487,261L0,261Z"><title>Download</title></path><path fill="#2ca02c" d="M0,261L2.842340733686487,261C5.684681467372974,261,11.369362934745949,261,17.054044402118922,261C22.738725869491898,261,28.42340733686487,261,34.108088804237845,261C39.79277027161081,261,45.47745173898378,261,51.16992044124357,261C56.86238914350336,261,62.56264508064995,261,68.25511378290975,261C73.94758248516952,261,79.63226395254252,261,85.31694541991548,261C91.00162688728847,261,96.68630835466143,261,102.37098982203442,261C108.05567128940739,261,113.74035275678035,261,119.43282145904014,261C125.12529016129992,261,130.8255460984465,261,136.5180148007063,260.8333333333333C142.21048350296607,260.6666666666667,147.89516497033904,260.3333333333333,153.57984643771204,260.3333333333333C159.26452790508503,260.3333333333333,164.949209372458,260.6666666666667,170.63389083983097,260.8333333333333C176.31857230720394,261,182.00325377457693,261,187.69572247683672,261C193.38819117909648,261,199.0884471162431,261,204.78091581850288,261C210.47338452076266,261,216.15806598813563,261,221.8427474555086,261C227.52742892288157,261,233.21211039025457,261,238.8967918576275,261C244.5814733250005,261,250.26615479237344,261,255.95829902651295,260.568759215625C261.6504432606525,260.13751843125,267.3500502615585,259.2750368625,273.042194495698,258.66417165028747C278.73433872983753,258.05330643807497,284.4190201972105,257.6940575824,290.10370166458347,257.2394086805427C295.78838313195644,256.7847597786854,301.4730645993294,256.23471083064584,307.1577460667024,255.8951625938204C312.84242753407534,255.555614356995,318.5271090014483,255.42656683138375,324.2195777037081,255.26360733360437C329.91204640596794,255.10064783582501,335.61230234311455,254.90377636587752,341.30509551349456,254.76170453593375C346.99788868387463,254.61963270598997,352.6832190874882,254.53236051604998,358.36822502298145,254.52640126782435C364.0532309584748,254.52044201959873,369.7379124258477,254.59579571308748,375.42259389322066,254.5753656872375C381.10727536059363,254.5549356613875,386.79195682796654,254.43872191619872,392.4844255302264,254.19281383028684C398.1768942324862,253.94690574437496,403.8771501696328,253.57130331774,409.56961887189254,252.90368773501186C415.2620875741524,252.23607215228375,420.94676904152533,251.2764434134625,426.6314505088983,251.19669797333188C432.31613197627127,251.11695253320124,438.0008134436442,251.91709039176126,443.6854949110172,252.6270709008775C449.37017637839017,253.33705140999373,455.05485784576314,253.9568745696662,460.74732654802284,254.1397773986913C466.4397952502827,254.32268022771635,472.14005118742926,254.068662726094,477.8325198896891,253.38380547240297C483.5249885919489,252.69894821871193,489.2096700593218,251.5832512129522,494.89435152669483,250.7058765432671C500.5790329940678,249.82850187358204,506.26371446144077,249.18944953997166,511.9483959288137,248.15140915569432C517.6330773961868,247.113368771417,523.3177588635598,245.67634033647275,529.0102275658195,245.29502519187994C534.7026962680793,244.9137100472872,540.4029522052259,245.58810819304594,546.0954209074856,246.21812920164268C551.7878896097454,246.8481502102395,557.4725710771185,247.43379408167436,563.1572525444914,247.62325953182668C568.8419340118644,247.81272498197902,574.5266154792374,247.60601201084876,580.21097247849,248.80851983682942C585.8953294777427,250.01102766281008,591.5793620088751,252.62275628590166,597.2715062430146,252.7274197229647C602.9636504771541,252.83208316002774,608.6639064143008,250.42968141106226,614.3566995846808,250.23621407613146C620.0494927550609,250.04274674120072,625.7348231586744,252.05821382030467,631.4198290941677,253.07618883013052C637.104835029661,254.0941638399564,642.789516497034,254.11464678050413,648.4741979644069,254.14064038920284C654.1588794317798,254.1666339979015,659.8435608991527,254.19813827475113,665.5360296014126,254.14950339847647C671.2284983036724,254.10086852220186,676.928754240819,253.972094492803,682.6212229430788,253.88959300464137C688.3136916453386,253.80709151647974,693.9983731127114,253.77086256955536,699.6830545800844,254.4113704696786C705.3677360474575,255.0518783698018,711.0524175148306,256.3691231169727,716.7370989822035,257.0441721667499C722.4217804495765,257.7192212165271,728.1064619169493,257.75207456891076,733.7989306192093,257.7834097932202C739.491399321469,257.8147450175296,745.1916552586157,257.8445621137649,750.8841239608754,257.7929295587913C756.5765926631351,257.74129700381764,762.261274130508,257.6082147976351,767.945955597881,257.57340034335726C773.6306370652541,257.53858588907934,779.315318532627,257.6020391867061,782.1576592663135,257.63376583551945L785,257.66549248433284L785,261L782.1576592663135,261C779.315318532627,261,773.6306370652541,261,767.945955597881,261C762.261274130508,261,756.5765926631351,261,750.8841239608754,261C745.1916552586157,261,739.491399321469,261,733.7989306192093,261C728.1064619169493,261,722.4217804495765,261,716.7370989822035,260.34527227551416C711.0524175148306,259.69054455102827,705.3677360474575,258.3810891020566,699.6830545800844,257.7893127338921C693.9983731127114,257.1975363657276,688.3136916453386,257.32343907837037,682.6212229430788,257.47754799130985C676.928754240819,257.63165690424927,671.2284983036724,257.81397201748536,665.5360296014126,257.98363952901394C659.8435608991527,258.15330704054253,654.1588794317798,258.3103269503635,648.4741979644069,258.4504752003856C642.789516497034,258.59062345040775,637.104835029661,258.71390004063096,631.4198290941677,257.8782386708739C625.7348231586744,257.04257730111675,620.0494927550609,255.24797797137933,614.3566995846808,255.14490620151847C608.6639064143008,255.04183443165763,602.9636504771541,256.63029022167336,597.2715062430146,256.7172460169199C591.5793620088751,256.8042018121664,585.8953294777427,255.38965761264367,580.21097247849,254.73651144570445C574.5266154792374,254.08336527876523,568.8419340118644,254.19161714440952,563.1572525444914,254.363938060606C557.4725710771185,254.53625897680251,551.7878896097454,254.77264894355122,546.0954209074856,254.60131700829098C540.4029522052259,254.42998507303074,534.7026962680793,253.85093123576155,529.0102275658195,253.80173015643177C523.3177588635598,253.75252907710197,517.6330773961868,254.2331807557116,511.9483959288137,254.53053519694603C506.26371446144077,254.82788963818044,500.5790329940678,254.94194684203958,494.89435152669483,255.6691258437596C489.2096700593218,256.39630484547956,483.5249885919489,257.73660564506037,477.8325198896891,258.4152946985296C472.14005118742926,259.09398375199873,466.4397952502827,259.11106105935625,460.74732654802295,259.098861454305C455.05485784576314,259.08666184925374,449.37017637839017,259.0451853317938,443.6854949110172,259.02077974354C438.0008134436442,258.9963741552863,432.31613197627127,258.9890394962388,426.6314505088983,258.95616736840685C420.94676904152533,258.923295240575,415.2620875741524,258.86488564395876,409.56961887189254,258.78563533652436C403.8771501696328,258.70638502909,398.1768942324862,258.60629401083753,392.4844255302264,258.58690388984314C386.79195682796654,258.56751376884876,381.10727536059363,258.6288245451125,375.42259389322066,258.6745546110375C369.7379124258477,258.7202846769624,364.0532309584748,258.75043403254875,358.36822502298145,258.77056640600557C352.6832190874882,258.7906987794625,346.99788868387463,258.80081417079003,341.30509551349456,258.74015913107127C335.61230234311455,258.6795040913525,329.91204640596794,258.5480786205875,324.2195777037081,258.4288326761981C318.5271090014483,258.30958673180874,312.84242753407534,258.202520313795,307.1577460667024,258.6330781221579C301.4730645993294,259.06363593052083,295.78838313195644,260.0318179652604,290.10370166458347,260.5159089826302C284.4190201972105,261,278.73433872983753,261,273.042194495698,261C267.3500502615585,261,261.6504432606525,261,255.95829902651295,261C250.26615479237344,261,244.5814733250005,261,238.8967918576275,261C233.21211039025457,261,227.52742892288157,261,221.84274745550863,261C216.15806598813563,261,210.47338452076266,261,204.78091581850288,261C199.0884471162431,261,193.38819117909648,261,187.69572247683672,261C182.00325377457693,261,176.31857230720394,261,170.63389083983097,260.8333333333333C164.949209372458,260.6666666666667,159.26452790508503,260.3333333333333,153.57984643771204,260.3333333333333C147.89516497033904,260.3333333333333,142.21048350296607,260.6666666666667,136.5180148007063,260.8333333333333C130.8255460984465,261,125.12529016129992,261,119.43282145904014,261C113.74035275678035,261,108.05567128940739,261,102.3709898220344,261C96.68630835466143,261,91.00162688728847,261,85.31694541991548,261C79.63226395254252,261,73.94758248516952,261,68.25511378290975,261C62.56264508064995,261,56.86238914350336,261,51.16992044124357,261C45.47745173898378,261,39.79277027161081,261,34.108088804237845,261C28.42340733686487,261,22.738725869491898,261,17.054044402118922,261C11.369362934745949,261,5.684681467372974,261,2.842340733686487,261L0,261Z"><title>Other</title></path><path fill="#d62728" d="M0,261L2.842340733686487,261C5.684681467372974,261,11.369362934745949,261,17.054044402118922,261C22.738725869491898,261,28.42340733686487,261,34.108088804237845,261C39.79277027161081,261,45.47745173898378,261,51.16992044124357,261C56.86238914350336,261,62.56264508064995,261,68.25511378290975,261C73.94758248516952,261,79.63226395254252,261,85.31694541991548,261C91.00162688728847,261,96.68630835466143,261,102.37098982203442,261C108.05567128940739,261,113.74035275678035,261,119.43282145904014,261C125.12529016129992,261,130.8255460984465,261,136.5180148007063,260.8333333333333C142.21048350296607,260.6666666666667,147.89516497033904,260.3333333333333,153.57984643771204,260.3333333333333C159.26452790508503,260.3333333333333,164.949209372458,260.6666666666667,170.63389083983097,260.8333333333333C176.31857230720394,261,182.00325377457693,261,187.69572247683672,261C193.38819117909648,261,199.0884471162431,261,204.78091581850288,261C210.47338452076266,261,216.15806598813563,261,221.8427474555086,261C227.52742892288157,261,233.21211039025457,261,238.8967918576275,260.8333333333333C244.5814733250005,260.6666666666667,250.26615479237344,260.3333333333333,255.95829902651295,260.3333333333333C261.6504432606525,260.3333333333333,267.3500502615585,260.6666666666667,273.042194495698,260.8333333333333C278.73433872983753,261,284.4190201972105,261,290.10370166458347,261C295.78838313195644,261,301.4730645993294,261,307.1577460667024,261C312.84242753407534,261,318.5271090014483,261,324.2195777037081,261C329.91204640596794,261,335.61230234311455,261,341.30509551349456,261C346.99788868387463,261,352.6832190874882,261,358.36822502298145,261C364.0532309584748,261,369.7379124258477,261,375.42259389322066,261C381.10727536059363,261,386.79195682796654,261,392.4844255302264,261C398.1768942324862,261,403.8771501696328,261,409.56961887189254,261C415.2620875741524,261,420.94676904152533,261,426.6314505088983,261C432.31613197627127,261,438.0008134436442,261,443.6854949110172,261C449.37017637839017,261,455.05485784576314,261,460.74732654802284,261C466.4397952502827,261,472.14005118742926,261,477.8325198896891,261C483.5249885919489,261,489.2096700593218,261,494.89435152669483,260.8333333333333C500.5790329940678,260.6666666666667,506.26371446144077,260.3333333333333,511.9483959288137,260.31640739179664C517.6330773961868,260.29948145026,523.3177588635598,260.5989629005199,529.0102275658195,259.9338027189032C534.7026962680793,259.26864253728655,540.4029522052259,257.6388407237933,546.0954209074856,256.7057448336722C551.7878896097454,255.77264894355122,557.4725710771185,255.53625897680251,563.1572525444914,255.36393806060605C568.8419340118644,255.19161714440952,574.5266154792374,255.08336527876523,580.21097247849,254.21407941115933C585.8953294777427,253.34479354355344,591.5793620088751,251.71447367398582,597.2715062430146,251.62751787873933C602.9636504771541,251.5405620834928,608.6639064143008,252.99697036256734,614.3566995846808,252.5143051649178C620.0494927550609,252.03163996726826,625.7348231586744,249.6099012928947,631.4198290941677,248.0437655967318C637.104835029661,246.47762990056887,642.789516497034,245.7670971826166,648.4741979644069,244.68952469978407C654.1588794317798,243.61195221695152,659.8435608991527,242.1673399692386,665.5360296014126,240.57176995795155C671.2284983036724,238.97619994666437,676.928754240819,237.22967217180303,682.6212229430788,232.0026421794593C688.3136916453386,226.77561218711557,693.9983731127114,218.06807997728947,699.6830545800844,208.5342863988698C705.3677360474575,199.00049282045015,711.0524175148306,188.64043787343692,716.7370989822035,181.9483362951804C722.4217804495765,175.25623471692384,728.1064619169493,172.232086507424,733.7989306192093,168.72287397536323C739.491399321469,165.2136614433025,745.1916552586157,161.21938458868087,750.8841239608754,157.68189798274963C756.5765926631351,154.14441137681837,762.261274130508,151.0637150195775,767.945955597881,147.55312227428763C773.6306370652541,144.04252952899776,779.315318532627,140.10204039565886,782.1576592663135,138.13179582898942L785,136.16155126232L785,232.2020519199575L782.1576592663135,231.75975280131445C779.315318532627,231.31745368267138,773.6306370652541,230.43285544538526,767.945955597881,228.64503261588763C762.261274130508,226.85720978638997,756.5765926631351,224.16616236468087,750.8841239608754,221.7589319969821C745.1916552586157,219.35170162928338,739.491399321469,217.228288315595,733.7989306192093,214.58695480407448C728.1064619169493,211.94562129255402,722.4217804495765,208.78636758320135,716.7370989822035,211.40599026211916C711.0524175148306,214.02561294103694,705.3677360474575,222.42411200822517,699.6830545800844,230.29347977315106C693.9983731127114,238.162847538077,688.3136916453386,245.50308400074053,682.6212229430788,249.2375892467718C676.928754240819,252.972094492803,671.2284983036724,253.10086852220186,665.5360296014126,253.14950339847653C659.8435608991527,253.19813827475113,654.1588794317798,253.1666339979015,648.4741979644069,253.1406403892028C642.789516497034,253.11464678050413,637.104835029661,253.0941638399564,631.4198290941677,254.09510756396926C625.7348231586744,255.09605128798225,620.0494927550609,257.1184216765558,614.3566995846808,257.3118890114866C608.6639064143008,257.50535634641733,602.9636504771541,255.86992062770528,597.2715062430146,255.77961972373114C591.5793620088751,255.6893188197571,585.8953294777427,257.14415273052094,580.21097247849,257.8710590921393C574.5266154792374,258.59796545375775,568.8419340118644,258.59694426623076,563.1572525444914,258.56768754923354C557.4725710771185,258.5384308322363,551.7878896097454,258.4809385857688,546.0954209074856,258.88161807265146C540.4029522052259,259.2822975595342,534.7026962680793,260.1411487797671,529.0102275658195,260.4039077232169C523.3177588635598,260.6666666666667,517.6330773961868,260.3333333333333,511.9483959288137,260.3333333333333C506.26371446144077,260.3333333333333,500.5790329940678,260.6666666666667,494.89435152669483,260.8333333333333C489.2096700593218,261,483.5249885919489,261,477.8325198896891,261C472.14005118742926,261,466.4397952502827,261,460.74732654802295,261C455.05485784576314,261,449.37017637839017,261,443.6854949110172,261C438.0008134436442,261,432.31613197627127,261,426.6314505088983,261C420.94676904152533,261,415.2620875741524,261,409.56961887189254,261C403.8771501696328,261,398.1768942324862,261,392.4844255302264,261C386.79195682796654,261,381.10727536059363,261,375.42259389322066,261C369.7379124258477,261,364.0532309584748,261,358.36822502298145,261C352.6832190874882,261,346.99788868387463,261,341.30509551349456,261C335.61230234311455,261,329.91204640596794,261,324.2195777037081,261C318.5271090014483,261,312.84242753407534,261,307.1577460667024,261C301.4730645993294,261,295.78838313195644,261,290.10370166458347,261C284.4190201972105,261,278.73433872983753,261,273.042194495698,260.8333333333333C267.3500502615585,260.6666666666667,261.6504432606525,260.3333333333333,255.95829902651295,260.3333333333333C250.26615479237344,260.3333333333333,244.5814733250005,260.6666666666667,238.8967918576275,260.8333333333333C233.21211039025457,261,227.52742892288157,261,221.84274745550863,261C216.15806598813563,261,210.47338452076266,261,204.78091581850288,261C199.0884471162431,261,193.38819117909648,261,187.69572247683672,261C182.00325377457693,261,176.31857230720394,261,170.63389083983097,260.8333333333333C164.949209372458,260.6666666666667,159.26452790508503,260.3333333333333,153.57984643771204,260.3333333333333C147.89516497033904,260.3333333333333,142.21048350296607,260.6666666666667,136.5180148007063,260.8333333333333C130.8255460984465,261,125.12529016129992,261,119.43282145904014,261C113.74035275678035,261,108.05567128940739,261,102.3709898220344,261C96.68630835466143,261,91.00162688728847,261,85.31694541991548,261C79.63226395254252,261,73.94758248516952,261,68.25511378290975,261C62.56264508064995,261,56.86238914350336,261,51.16992044124357,261C45.47745173898378,261,39.79277027161081,261,34.108088804237845,261C28.42340733686487,261,22.738725869491898,261,17.054044402118922,261C11.369362934745949,261,5.684681467372974,261,2.842340733686487,261L0,261Z"><title>Streaming</title></path><path fill="#8c564b" d="M0,133.72314796948623L2.842340733686487,134.0939700140631C5.684681467372974,134.46479205863997,11.369362934745949,135.20643614779374,17.054044402118922,135.68047593362C22.738725869491898,136.15451571944624,28.42340733686487,136.360951201945,34.108088804237845,134.74606414603124C39.79277027161081,133.1311770901175,45.47745173898378,129.69496749579125,51.16992044124357,123.4981786866756C56.86238914350336,117.30138987755998,62.56264508064995,108.34402185365498,68.25511378290975,101.27224788488998C73.94758248516952,94.20047391612498,79.63226395254252,89.01429400249998,85.31694541991548,92.32386013249999C91.00162688728847,95.63342626249998,96.68630835466143,107.43873843612499,102.37098982203442,116.09490696286248C108.05567128940739,124.7510754896,113.74035275678035,130.25810036945,119.43282145904014,133.45978966770002C125.12529016129992,136.66147896595,130.8255460984465,137.5578326826,136.5180148007063,140.6729935541846C142.21048350296607,143.78815442576916,147.89516497033904,149.12212245228832,153.57984643771204,151.59727168270354C159.26452790508503,154.07242091311875,164.949209372458,153.68875134742999,170.63389083983097,162.57912947952042C176.31857230720394,171.46950761161085,182.00325377457693,189.63393344148042,187.69572247683672,199.01445802901523C193.38819117909648,208.39498261655,199.0884471162431,208.99160596175,204.78091581850288,208.63909070434374C210.47338452076266,208.2865754469375,216.15806598813563,206.984921586925,221.8427474555086,211.48920011932287C227.52742892288157,215.99347865172084,233.21211039025457,226.30368957652914,238.8967918576275,232.5652408805104C244.5814733250005,238.82679218449167,250.26615479237344,241.03968386764583,255.95829902651295,243.2479047377354C261.6504432606525,245.456125607825,267.3500502615585,247.65967566484997,273.042194495698,249.19869256826874C278.73433872983753,250.7377094716875,284.4190201972105,251.6121932215,290.10370166458347,253.15089791715104C295.78838313195644,254.68960261280208,301.4730645993294,256.8925282542917,307.1577460667024,258.04752428404333C312.84242753407534,259.202520313795,318.5271090014483,259.30958673180874,324.2195777037081,259.4288326761981C329.91204640596794,259.5480786205875,335.61230234311455,259.6795040913525,341.30509551349456,259.74015913107127C346.99788868387463,259.80081417079003,352.6832190874882,259.7906987794625,358.36822502298145,259.77056640600557C364.0532309584748,259.75043403254875,369.7379124258477,259.7202846769624,375.42259389322066,259.6745546110375C381.10727536059363,259.6288245451125,386.79195682796654,259.56751376884876,392.4844255302264,259.58690388984314C398.1768942324862,259.60629401083753,403.8771501696328,259.70638502909,409.56961887189254,259.78563533652436C415.2620875741524,259.86488564395876,420.94676904152533,259.923295240575,426.6314505088983,259.9561673684069C432.31613197627127,259.9890394962388,438.0008134436442,259.9963741552863,443.6854949110172,260.02077974354C449.37017637839017,260.0451853317938,455.05485784576314,260.08666184925374,460.74732654802284,260.098861454305C466.4397952502827,260.11106105935625,472.14005118742926,260.09398375199873,477.8325198896891,260.1223547502275C483.5249885919489,260.15072574845624,489.2096700593218,260.22454505227125,494.89435152669483,259.9362674758117C500.5790329940678,259.64798989935207,506.26371446144077,258.9976154426179,511.9483959288137,258.6099995398916C517.6330773961868,258.22238363716536,523.3177588635598,258.09752628844694,529.0102275658195,258.27689384734987C534.7026962680793,258.45626140625285,540.4029522052259,258.93985387277706,546.0954209074856,259.21039622927293C551.7878896097454,259.4809385857688,557.4725710771185,259.5384308322363,563.1572525444914,259.56768754923354C568.8419340118644,259.59694426623076,574.5266154792374,259.59796545375775,580.21097247849,259.53510260925526C585.8953294777427,259.4722397647529,591.5793620088751,259.34549288822103,597.2715062430146,259.43579379219506C602.9636504771541,259.5260946961692,608.6639064143008,259.83344338064927,614.3566995846808,259.93651515051016C620.0494927550609,260.039586920371,625.7348231586744,259.93838177561264,631.4198290941677,259.8261409081218C637.104835029661,259.71390004063096,642.789516497034,259.59062345040775,648.4741979644069,259.4504752003856C654.1588794317798,259.3103269503635,659.8435608991527,259.15330704054253,665.5360296014126,258.98363952901394C671.2284983036724,258.81397201748536,676.928754240819,258.63165690424927,682.6212229430788,258.47754799130985C688.3136916453386,258.32343907837037,693.9983731127114,258.1975363657276,699.6830545800844,257.2406884378262C705.3677360474575,256.2838405099248,711.0524175148306,254.4960473667647,716.7370989822035,253.58594766962537C722.4217804495765,252.67584797248597,728.1064619169493,252.64344172136737,733.7989306192093,252.59185833008289C739.491399321469,252.54027493879835,745.1916552586157,252.46951440734802,750.8841239608754,252.33015652439886C756.5765926631351,252.19079864144976,762.261274130508,251.98284340700187,767.945955597881,251.77976893790006C773.6306370652541,251.57669446879822,779.315318532627,251.3785007650425,782.1576592663135,251.2794039131646L785,251.18030706128673L785,256.66549248433284L782.1576592663135,256.63376583551945C779.315318532627,256.6020391867061,773.6306370652541,256.53858588907934,767.945955597881,256.57340034335726C762.261274130508,256.6082147976351,756.5765926631351,256.74129700381764,750.8841239608754,256.7929295587913C745.1916552586157,256.8445621137649,739.491399321469,256.8147450175296,733.7989306192093,256.7834097932202C728.1064619169493,256.75207456891076,722.4217804495765,256.7192212165271,716.7370989822035,257.42173322964476C711.0524175148306,258.12424524276236,705.3677360474575,259.56212262138115,699.6830545800844,260.2810613106906C693.9983731127114,261,688.3136916453386,261,682.6212229430788,261C676.928754240819,261,671.2284983036724,261,665.5360296014126,261C659.8435608991527,261,654.1588794317798,261,648.4741979644069,261C642.789516497034,261,637.104835029661,261,631.4198290941677,261C625.7348231586744,261,620.0494927550609,261,614.3566995846808,260.8313963399747C608.6639064143008,260.6627926799493,602.9636504771541,260.3255853598986,597.2715062430146,260.15221278422297C591.5793620088751,259.97884020854735,585.8953294777427,259.96930237724683,580.21097247849,259.96273490752804C574.5266154792374,259.95616743780926,568.8419340118644,259.95257032967214,563.1572525444914,259.92819453927547C557.4725710771185,259.9038187488788,551.7878896097454,259.8586642762225,546.0954209074856,259.6254392014704C540.4029522052259,259.3922141267183,534.7026962680793,258.97091844987034,529.0102275658195,258.83533348260926C523.3177588635598,258.69974851534823,517.6330773961868,258.8498742576741,511.9483959288137,259.2582704621704C506.26371446144077,259.6666666666667,500.5790329940678,260.3333333333333,494.89435152669483,260.6666666666667C489.2096700593218,261,483.5249885919489,261,477.8325198896891,261C472.14005118742926,261,466.4397952502827,261,460.74732654802295,261C455.05485784576314,261,449.37017637839017,261,443.6854949110172,261C438.0008134436442,261,432.31613197627127,261,426.6314505088983,261C420.94676904152533,261,415.2620875741524,261,409.56961887189254,261C403.8771501696328,261,398.1768942324862,261,392.4844255302264,261C386.79195682796654,261,381.10727536059363,261,375.42259389322066,261C369.7379124258477,261,364.0532309584748,261,358.36822502298145,261C352.6832190874882,261,346.99788868387463,261,341.30509551349456,261C335.61230234311455,261,329.91204640596794,261,324.2195777037081,261C318.5271090014483,261,312.84242753407534,261,307.1577460667024,260.2224681211208C301.4730645993294,259.4449362422417,295.78838313195644,257.8898724844833,290.10370166458347,257.2919650334416C284.4190201972105,256.6940575824,278.73433872983753,257.05330643807497,273.042194495698,257.66417165028747C267.3500502615585,258.2750368625,261.6504432606525,259.13751843125,255.95829902651295,259.7354258822916C250.26615479237344,260.3333333333333,244.5814733250005,260.6666666666667,238.8967918576275,256.73429286635417C233.21211039025457,252.80191906604168,227.52742892288157,244.60383813208333,221.84274745550863,242.75979365198543C216.15806598813563,240.91574917188748,210.47338452076266,245.42574114565,204.78091581850288,248.89741254285002C199.0884471162431,252.36908394005,193.38819117909648,254.80243476068748,187.69572247683672,247.80810682033396C182.00325377457693,240.81377887998042,176.31857230720394,224.39177217863585,170.63389083983097,217.86478311773917C164.949209372458,211.3377940568425,159.26452790508503,214.70582263639378,153.57984643771204,216.3641523468348C147.89516497033904,218.02248205727582,142.21048350296607,217.97111289860663,136.5180148007063,218.03062376799085C130.8255460984465,218.09013463737497,125.12529016129992,218.2605255348125,119.43282145904014,217.20052378884375C113.74035275678035,216.140522042875,108.05567128940739,213.85012765349998,102.3709898220344,210.84410264756252C96.68630835466143,207.838077641625,91.00162688728847,204.116422019125,85.31694541991548,204.0799146894375C79.63226395254252,204.04340735974998,73.94758248516952,207.69204832287502,68.25511378290975,210.87510065251502C62.56264508064995,214.058152982155,56.86238914350336,216.77561667831,51.16992044124357,218.9253197855506C45.47745173898378,221.07502289279125,39.79277027161081,222.6569654111175,34.108088804237845,223.3014880599063C28.42340733686487,223.946010708695,22.738725869491898,223.65311348794626,17.054044402118922,223.55389351293252C11.369362934745949,223.45467353791875,5.684681467372974,223.54913080864,2.842340733686487,223.59635944400063L0,223.64358807936125Z"><title>Vinyl</title></path></g><g id="xAxis" transform="translate(0,261)" fill="none" font-size="10" font-family="sans-serif" text-anchor="middle"><path class="domain" stroke="currentColor" d="M0.5,0.5H785.5"/><g class="tick" opacity="1" transform="translate(34.608088804237845,0)"><line stroke="currentColor" y2="6"/><text fill="currentColor" y="9" dy="0.71em">1975</text></g><g class="tick" opacity="1" transform="translate(119.92503422415332,0)"><line stroke="currentColor" y2="6"/><text fill="currentColor" y="9" dy="0.71em">1980</text></g><g class="tick" opacity="1" transform="translate(205.2887030533897,0)"><line stroke="currentColor" y2="6"/><text fill="currentColor" y="9" dy="0.71em">1985</text></g><g class="tick" opacity="1" transform="translate(290.60370166458347,0)"><line stroke="currentColor" y2="6"/><text fill="currentColor" y="9" dy="0.71em">1990</text></g><g class="tick" opacity="1" transform="translate(375.92259389322066,0)"><line stroke="currentColor" y2="6"/><text fill="currentColor" y="9" dy="0.71em">1995</text></g><g class="tick" opacity="1" transform="translate(461.2395393131361,0)"><line stroke="currentColor" y2="6"/><text fill="currentColor" y="9" dy="0.71em">2000</text></g><g class="tick" opacity="1" transform="translate(546.6032081423724,0)"><line stroke="currentColor" y2="6"/><text fill="currentColor" y="9" dy="0.71em">2005</text></g><g class="tick" opacity="1" transform="translate(631.920153562288,0)"><line stroke="currentColor" y2="6"/><text fill="currentColor" y="9" dy="0.71em">2010</text></g><g class="tick" opacity="1" transform="translate(717.2370989822035,0)"><line stroke="currentColor" y2="6"/><text fill="currentColor" y="9" dy="0.71em">2015</text></g></g><text y="257" x="785" text-anchor="end" style="font-family: Arial, sans-serif; font-size: 12px; fill: rgb(123, 123, 123); font-weight: bold;">Year</text><text x="4" text-anchor="start" dominant-baseline="hanging" style="font-family: Arial, sans-serif; font-size: 12px; fill: rgb(123, 123, 123); font-weight: bold;">Revenues in millions (Adjusted for inflation)</text><g id="labels"><text x="255.95083625974644" y="151.4543239422525" text-anchor="middle" alignment-baseline="middle" style="font-family: Arial, sans-serif; font-size: 10px; fill: black; font-weight: bold;">Tape</text><text x="443.6854949110172" y="123.40306338356626" text-anchor="middle" alignment-baseline="middle" style="font-family: Arial, sans-serif; font-size: 10px; fill: black; font-weight: bold;">Disc</text><text x="665.5282423665258" y="190.30533517786816" text-anchor="middle" alignment-baseline="middle" style="font-family: Arial, sans-serif; font-size: 10px; fill: black; font-weight: bold;">Download</text><text x="529.0024403309327" y="248.7555946500104" text-anchor="middle" alignment-baseline="middle" style="font-family: Arial, sans-serif; font-size: 10px; fill: black; font-weight: bold;">Other</text><text x="785" y="184.18180159113874" text-anchor="end" alignment-baseline="middle" style="font-family: Arial, sans-serif; font-size: 10px; fill: black; font-weight: bold;">Streaming</text><text x="85.31694541991548" y="142.11144024274998" text-anchor="middle" alignment-baseline="middle" style="font-family: Arial, sans-serif; font-size: 10px; fill: black; font-weight: bold;">Vinyl</text></g></g><text x="4" y="4" style="font-family: Arial, sans-serif; font-size: 12px; fill: black; font-weight: bold; dominant-baseline: hanging;"/></g></g></svg>